<?xml version="1.0" standalone="no"?>
<!DOCTYPE svg PUBLIC "-//W3C//DTD SVG 20010904//EN"
 "http://www.w3.org/TR/2001/REC-SVG-20010904/DTD/svg10.dtd">
<svg version="1.0" xmlns="http://www.w3.org/2000/svg"
 width="16.000000pt" height="16.000000pt" viewBox="0 0 16.000000 16.000000"
 preserveAspectRatio="xMidYMid meet">
<metadata>
Created by potrace 1.11, written by Peter Selinger 2001-2013
</metadata>
<g transform="translate(0.000000,16.000000) scale(0.006154,-0.006154)"
fill="#000000" stroke="none">
<path d="M2242 2460 c-50 -20 -64 -127 -22 -165 65 -58 180 -16 180 67 0 35
-28 100 -40 93 -5 -3 -11 -1 -15 5 -8 12 -72 12 -103 0z"/>
<path d="M1155 2144 c-17 -18 -13 -123 6 -135 8 -5 25 -9 39 -8 14 1 37 1 51
0 l26 -1 1 -357 c0 -313 2 -358 16 -368 19 -14 142 -13 156 1 6 6 10 147 10
367 l1 357 42 1 c47 1 179 1 217 0 l25 -1 0 -278 c1 -316 7 -354 65 -412 19
-19 53 -41 75 -47 46 -13 137 -10 178 6 27 11 28 13 25 78 l-3 68 -50 1 c-66
0 -92 10 -101 37 -11 36 -10 547 1 548 6 1 24 0 42 -1 58 -3 73 13 73 80 0 46
-4 61 -17 68 -10 5 -208 9 -441 9 -332 0 -427 -3 -437 -13z"/>
<path d="M2218 2147 c-11 -11 -13 -94 -13 -440 0 -234 4 -429 8 -433 10 -10
126 -13 152 -4 19 7 20 17 20 434 0 235 -3 433 -7 439 -10 17 -143 20 -160 4z"/>
<path d="M590 1480 c-85 -26 -133 -54 -196 -117 -72 -71 -81 -82 -120 -158
-93 -178 -102 -440 -21 -645 49 -127 160 -240 283 -289 100 -40 287 -49 399
-20 109 28 237 96 251 134 6 16 -16 75 -28 75 -5 0 -8 5 -8 11 0 16 -44 75
-55 74 -13 -1 -58 -26 -65 -35 -8 -11 -91 -47 -130 -56 -55 -12 -62 -13 -120
-15 -136 -6 -227 51 -284 175 -24 52 -48 173 -37 181 4 2 169 3 368 3 198 0
371 3 383 7 22 7 22 9 18 149 -4 120 -9 153 -32 221 -15 44 -43 101 -62 127
-19 27 -34 51 -34 56 -1 9 -76 64 -119 86 -98 51 -285 68 -391 36z m258 -215
c47 -22 84 -66 110 -130 14 -34 24 -125 14 -126 -4 -1 -119 -2 -255 -3 l-249
-1 5 35 c11 85 91 199 161 231 56 26 151 23 214 -6z"/>
</g>
</svg>
